<mxfile host="app.diagrams.net" modified="2020-06-02T00:57:17.907Z" agent="5.0 (Windows NT 10.0; Win64; x64) AppleWebKit/537.36 (KHTML, like Gecko) Chrome/83.0.4103.61 Safari/537.36" etag="2XiUw3X3VkusfhJjGJPK" version="13.1.12" type="github">
  <diagram id="veKuksc_ZrwfzwcqDDUQ" name="Page-1">
    <mxGraphModel dx="1422" dy="762" grid="1" gridSize="10" guides="1" tooltips="1" connect="1" arrows="1" fold="1" page="1" pageScale="1" pageWidth="1920" pageHeight="1200" math="0" shadow="0">
      <root>
        <mxCell id="0" />
        <mxCell id="1" parent="0" />
        <mxCell id="PEsu_zmEFKTXnumoR2Yf-4" value="전자 문서" style="ellipse;whiteSpace=wrap;html=1;" parent="1" vertex="1">
          <mxGeometry x="865" y="330" width="90" height="70" as="geometry" />
        </mxCell>
        <mxCell id="PEsu_zmEFKTXnumoR2Yf-21" value="기안" style="ellipse;whiteSpace=wrap;html=1;" parent="1" vertex="1">
          <mxGeometry x="865" y="210" width="90" height="70" as="geometry" />
        </mxCell>
        <mxCell id="PEsu_zmEFKTXnumoR2Yf-22" value="결재" style="ellipse;whiteSpace=wrap;html=1;" parent="1" vertex="1">
          <mxGeometry x="1055" y="290" width="90" height="70" as="geometry" />
        </mxCell>
        <mxCell id="PEsu_zmEFKTXnumoR2Yf-23" value="완료문서" style="ellipse;whiteSpace=wrap;html=1;" parent="1" vertex="1">
          <mxGeometry x="1055" y="386" width="90" height="70" as="geometry" />
        </mxCell>
        <mxCell id="PEsu_zmEFKTXnumoR2Yf-24" value="문서등록대장" style="ellipse;whiteSpace=wrap;html=1;" parent="1" vertex="1">
          <mxGeometry x="1055" y="480" width="90" height="70" as="geometry" />
        </mxCell>
        <mxCell id="PEsu_zmEFKTXnumoR2Yf-25" value="임시저장" style="ellipse;whiteSpace=wrap;html=1;" parent="1" vertex="1">
          <mxGeometry x="1135" y="80" width="90" height="70" as="geometry" />
        </mxCell>
        <mxCell id="PEsu_zmEFKTXnumoR2Yf-26" value="문서처리" style="ellipse;whiteSpace=wrap;html=1;" parent="1" vertex="1">
          <mxGeometry x="805" y="100" width="90" height="70" as="geometry" />
        </mxCell>
        <mxCell id="PEsu_zmEFKTXnumoR2Yf-27" value="문서작성" style="ellipse;whiteSpace=wrap;html=1;" parent="1" vertex="1">
          <mxGeometry x="945" y="100" width="93" height="70" as="geometry" />
        </mxCell>
        <mxCell id="PEsu_zmEFKTXnumoR2Yf-28" value="임시저장함" style="ellipse;whiteSpace=wrap;html=1;" parent="1" vertex="1">
          <mxGeometry x="1025" y="170" width="90" height="70" as="geometry" />
        </mxCell>
        <mxCell id="PEsu_zmEFKTXnumoR2Yf-29" value="문서수정" style="ellipse;whiteSpace=wrap;html=1;" parent="1" vertex="1">
          <mxGeometry x="1145" y="170" width="90" height="70" as="geometry" />
        </mxCell>
        <mxCell id="PEsu_zmEFKTXnumoR2Yf-30" value="문서처리" style="ellipse;whiteSpace=wrap;html=1;" parent="1" vertex="1">
          <mxGeometry x="1225" y="220" width="90" height="70" as="geometry" />
        </mxCell>
        <mxCell id="PEsu_zmEFKTXnumoR2Yf-31" value="결재대기함" style="ellipse;whiteSpace=wrap;html=1;" parent="1" vertex="1">
          <mxGeometry x="1285" y="290" width="90" height="70" as="geometry" />
        </mxCell>
        <mxCell id="PEsu_zmEFKTXnumoR2Yf-32" value="진행문서함" style="ellipse;whiteSpace=wrap;html=1;" parent="1" vertex="1">
          <mxGeometry x="1325" y="370" width="90" height="70" as="geometry" />
        </mxCell>
        <mxCell id="PEsu_zmEFKTXnumoR2Yf-55" value="" style="endArrow=none;html=1;exitX=0.5;exitY=0;exitDx=0;exitDy=0;entryX=0.5;entryY=1;entryDx=0;entryDy=0;" parent="1" source="PEsu_zmEFKTXnumoR2Yf-24" target="PEsu_zmEFKTXnumoR2Yf-23" edge="1">
          <mxGeometry width="50" height="50" relative="1" as="geometry">
            <mxPoint x="1195" y="730" as="sourcePoint" />
            <mxPoint x="1245" y="680" as="targetPoint" />
          </mxGeometry>
        </mxCell>
        <mxCell id="PEsu_zmEFKTXnumoR2Yf-65" value="Actor" style="shape=umlActor;verticalLabelPosition=bottom;labelBackgroundColor=#ffffff;verticalAlign=top;html=1;outlineConnect=0;" parent="1" vertex="1">
          <mxGeometry x="90" y="610" width="30" height="60" as="geometry" />
        </mxCell>
        <mxCell id="PEsu_zmEFKTXnumoR2Yf-67" value="로그인" style="ellipse;whiteSpace=wrap;html=1;" parent="1" vertex="1">
          <mxGeometry x="630" y="400" width="90" height="70" as="geometry" />
        </mxCell>
        <mxCell id="PEsu_zmEFKTXnumoR2Yf-68" value="" style="endArrow=classic;html=1;exitX=1;exitY=0.3333333333333333;exitDx=0;exitDy=0;exitPerimeter=0;entryX=0;entryY=0.5;entryDx=0;entryDy=0;" parent="1" source="PEsu_zmEFKTXnumoR2Yf-65" target="PEsu_zmEFKTXnumoR2Yf-67" edge="1">
          <mxGeometry width="50" height="50" relative="1" as="geometry">
            <mxPoint x="280" y="855" as="sourcePoint" />
            <mxPoint x="620" y="540" as="targetPoint" />
            <Array as="points" />
          </mxGeometry>
        </mxCell>
        <mxCell id="PEsu_zmEFKTXnumoR2Yf-69" style="edgeStyle=orthogonalEdgeStyle;rounded=0;orthogonalLoop=1;jettySize=auto;html=1;exitX=0.5;exitY=1;exitDx=0;exitDy=0;" parent="1" edge="1">
          <mxGeometry relative="1" as="geometry">
            <mxPoint x="610" y="550" as="sourcePoint" />
            <mxPoint x="610" y="550" as="targetPoint" />
          </mxGeometry>
        </mxCell>
        <mxCell id="DOy3Ms5891rvQtxvsLgi-11" value="일정 관리" style="ellipse;whiteSpace=wrap;html=1;" parent="1" vertex="1">
          <mxGeometry x="490" y="170" width="90" height="70" as="geometry" />
        </mxCell>
        <mxCell id="DOy3Ms5891rvQtxvsLgi-13" value="커뮤니티" style="ellipse;whiteSpace=wrap;html=1;" parent="1" vertex="1">
          <mxGeometry x="890" y="570" width="90" height="70" as="geometry" />
        </mxCell>
        <mxCell id="Yp1-gwKtbLMfh5_p5UJI-6" value="공지사항" style="ellipse;whiteSpace=wrap;html=1;" parent="1" vertex="1">
          <mxGeometry x="890" y="770" width="90" height="70" as="geometry" />
        </mxCell>
        <mxCell id="Yp1-gwKtbLMfh5_p5UJI-8" value="사내게시판" style="ellipse;whiteSpace=wrap;html=1;" parent="1" vertex="1">
          <mxGeometry x="1050" y="700" width="90" height="70" as="geometry" />
        </mxCell>
        <mxCell id="Yp1-gwKtbLMfh5_p5UJI-10" value="스터디 모집" style="ellipse;whiteSpace=wrap;html=1;" parent="1" vertex="1">
          <mxGeometry x="1180" y="620" width="90" height="70" as="geometry" />
        </mxCell>
        <mxCell id="DOy3Ms5891rvQtxvsLgi-15" value="사용자검색" style="ellipse;whiteSpace=wrap;html=1;" parent="1" vertex="1">
          <mxGeometry x="680" y="720" width="90" height="70" as="geometry" />
        </mxCell>
        <mxCell id="DOy3Ms5891rvQtxvsLgi-16" value="회원가입" style="ellipse;whiteSpace=wrap;html=1;" parent="1" vertex="1">
          <mxGeometry x="280" y="440" width="90" height="70" as="geometry" />
        </mxCell>
        <mxCell id="DOy3Ms5891rvQtxvsLgi-17" value="" style="endArrow=classic;html=1;entryX=0;entryY=0.5;entryDx=0;entryDy=0;exitX=1;exitY=0.3333333333333333;exitDx=0;exitDy=0;exitPerimeter=0;" parent="1" source="PEsu_zmEFKTXnumoR2Yf-65" target="DOy3Ms5891rvQtxvsLgi-16" edge="1">
          <mxGeometry width="50" height="50" relative="1" as="geometry">
            <mxPoint x="260" y="639.9999999999998" as="sourcePoint" />
            <mxPoint x="459.99999999999545" y="644.9999999999998" as="targetPoint" />
          </mxGeometry>
        </mxCell>
        <mxCell id="DOy3Ms5891rvQtxvsLgi-18" value="아이디찾기" style="ellipse;whiteSpace=wrap;html=1;" parent="1" vertex="1">
          <mxGeometry x="280" y="360" width="90" height="70" as="geometry" />
        </mxCell>
        <mxCell id="DOy3Ms5891rvQtxvsLgi-19" value="비밀번호찾기" style="ellipse;whiteSpace=wrap;html=1;" parent="1" vertex="1">
          <mxGeometry x="280" y="280" width="90" height="70" as="geometry" />
        </mxCell>
        <mxCell id="DOy3Ms5891rvQtxvsLgi-20" value="" style="endArrow=classic;html=1;exitX=1;exitY=0.5;exitDx=0;exitDy=0;entryX=0;entryY=0.5;entryDx=0;entryDy=0;" parent="1" source="DOy3Ms5891rvQtxvsLgi-16" target="PEsu_zmEFKTXnumoR2Yf-67" edge="1">
          <mxGeometry width="50" height="50" relative="1" as="geometry">
            <mxPoint x="270" y="599.9999999999998" as="sourcePoint" />
            <mxPoint x="615" y="540" as="targetPoint" />
          </mxGeometry>
        </mxCell>
        <mxCell id="DOy3Ms5891rvQtxvsLgi-25" value="마이페이지" style="ellipse;whiteSpace=wrap;html=1;" parent="1" vertex="1">
          <mxGeometry x="380" y="610" width="90" height="70" as="geometry" />
        </mxCell>
        <mxCell id="DOy3Ms5891rvQtxvsLgi-28" value="회원정보변경" style="ellipse;whiteSpace=wrap;html=1;" parent="1" vertex="1">
          <mxGeometry x="269.99999999999994" y="700" width="90" height="70" as="geometry" />
        </mxCell>
        <mxCell id="DOy3Ms5891rvQtxvsLgi-30" value="근태조회" style="ellipse;whiteSpace=wrap;html=1;" parent="1" vertex="1">
          <mxGeometry x="400" y="780" width="90" height="70" as="geometry" />
        </mxCell>
        <mxCell id="DOy3Ms5891rvQtxvsLgi-32" value="휴가" style="ellipse;whiteSpace=wrap;html=1;" parent="1" vertex="1">
          <mxGeometry x="280" y="800" width="90" height="70" as="geometry" />
        </mxCell>
        <mxCell id="DOy3Ms5891rvQtxvsLgi-35" value="휴가신청" style="ellipse;whiteSpace=wrap;html=1;" parent="1" vertex="1">
          <mxGeometry x="260" y="940" width="90" height="70" as="geometry" />
        </mxCell>
        <mxCell id="DOy3Ms5891rvQtxvsLgi-37" value="휴가내역조회" style="ellipse;whiteSpace=wrap;html=1;" parent="1" vertex="1">
          <mxGeometry x="370" y="910" width="90" height="70" as="geometry" />
        </mxCell>
        <mxCell id="DOy3Ms5891rvQtxvsLgi-39" value="회원탈퇴" style="ellipse;whiteSpace=wrap;html=1;" parent="1" vertex="1">
          <mxGeometry x="510" y="830" width="90" height="70" as="geometry" />
        </mxCell>
        <mxCell id="J3ixDLLctHBhhOuJPxoI-3" value="Extend" style="endArrow=block;endSize=16;endFill=0;html=1;dashed=1;exitX=0.004;exitY=0.615;exitDx=0;exitDy=0;exitPerimeter=0;" parent="1" source="PEsu_zmEFKTXnumoR2Yf-32" target="PEsu_zmEFKTXnumoR2Yf-24" edge="1">
          <mxGeometry x="-0.1951" width="160" relative="1" as="geometry">
            <mxPoint x="1245" y="520" as="sourcePoint" />
            <mxPoint x="1125" y="600" as="targetPoint" />
            <mxPoint as="offset" />
          </mxGeometry>
        </mxCell>
        <mxCell id="J3ixDLLctHBhhOuJPxoI-4" value="Extend" style="endArrow=block;endSize=16;endFill=0;html=1;dashed=1;exitX=0;exitY=0.354;exitDx=0;exitDy=0;exitPerimeter=0;" parent="1" source="PEsu_zmEFKTXnumoR2Yf-24" target="PEsu_zmEFKTXnumoR2Yf-4" edge="1">
          <mxGeometry x="-0.2583" y="10" width="160" relative="1" as="geometry">
            <mxPoint x="995.3599999999997" y="509.9999999999998" as="sourcePoint" />
            <mxPoint x="894.9999999999982" y="551.95" as="targetPoint" />
            <mxPoint as="offset" />
          </mxGeometry>
        </mxCell>
        <mxCell id="J3ixDLLctHBhhOuJPxoI-5" value="Extend" style="endArrow=block;endSize=16;endFill=0;html=1;dashed=1;exitX=0;exitY=0;exitDx=0;exitDy=0;entryX=0.993;entryY=0.437;entryDx=0;entryDy=0;entryPerimeter=0;" parent="1" source="PEsu_zmEFKTXnumoR2Yf-23" target="PEsu_zmEFKTXnumoR2Yf-4" edge="1">
          <mxGeometry x="-0.2939" y="13" width="160" relative="1" as="geometry">
            <mxPoint x="1065" y="494.78" as="sourcePoint" />
            <mxPoint x="948.2939825535309" y="382.2161165514917" as="targetPoint" />
            <mxPoint as="offset" />
          </mxGeometry>
        </mxCell>
        <mxCell id="J3ixDLLctHBhhOuJPxoI-6" value="Extend" style="endArrow=block;endSize=16;endFill=0;html=1;dashed=1;exitX=0;exitY=0.5;exitDx=0;exitDy=0;entryX=0.985;entryY=0.437;entryDx=0;entryDy=0;entryPerimeter=0;" parent="1" source="PEsu_zmEFKTXnumoR2Yf-22" target="PEsu_zmEFKTXnumoR2Yf-4" edge="1">
          <mxGeometry x="-0.2939" y="13" width="160" relative="1" as="geometry">
            <mxPoint x="1078.0048831254635" y="392.38837163497215" as="sourcePoint" />
            <mxPoint x="964.3699999999999" y="347.5899999999999" as="targetPoint" />
            <mxPoint as="offset" />
          </mxGeometry>
        </mxCell>
        <mxCell id="J3ixDLLctHBhhOuJPxoI-7" value="Extends" style="endArrow=block;endSize=16;endFill=0;html=1;dashed=1;exitX=0.556;exitY=1.038;exitDx=0;exitDy=0;entryX=0.5;entryY=0;entryDx=0;entryDy=0;exitPerimeter=0;" parent="1" source="PEsu_zmEFKTXnumoR2Yf-21" target="PEsu_zmEFKTXnumoR2Yf-4" edge="1">
          <mxGeometry x="-0.3644" y="22" width="160" relative="1" as="geometry">
            <mxPoint x="1016.3500000000017" y="290" as="sourcePoint" />
            <mxPoint x="914.9999999999999" y="315.5899999999999" as="targetPoint" />
            <mxPoint as="offset" />
          </mxGeometry>
        </mxCell>
        <mxCell id="J3ixDLLctHBhhOuJPxoI-8" value="" style="endArrow=none;html=1;entryX=0.5;entryY=1;entryDx=0;entryDy=0;exitX=0.5;exitY=0;exitDx=0;exitDy=0;" parent="1" source="PEsu_zmEFKTXnumoR2Yf-23" target="PEsu_zmEFKTXnumoR2Yf-22" edge="1">
          <mxGeometry width="50" height="50" relative="1" as="geometry">
            <mxPoint x="1100" y="390" as="sourcePoint" />
            <mxPoint x="1110" y="475" as="targetPoint" />
          </mxGeometry>
        </mxCell>
        <mxCell id="J3ixDLLctHBhhOuJPxoI-9" value="" style="endArrow=none;html=1;exitX=0;exitY=0;exitDx=0;exitDy=0;" parent="1" source="PEsu_zmEFKTXnumoR2Yf-22" target="PEsu_zmEFKTXnumoR2Yf-21" edge="1">
          <mxGeometry width="50" height="50" relative="1" as="geometry">
            <mxPoint x="1110" y="405" as="sourcePoint" />
            <mxPoint x="1110" y="380" as="targetPoint" />
          </mxGeometry>
        </mxCell>
        <mxCell id="J3ixDLLctHBhhOuJPxoI-10" value="Extend" style="endArrow=block;endSize=16;endFill=0;html=1;dashed=1;exitX=0;exitY=0.5;exitDx=0;exitDy=0;" parent="1" source="PEsu_zmEFKTXnumoR2Yf-31" target="PEsu_zmEFKTXnumoR2Yf-24" edge="1">
          <mxGeometry x="0.1837" y="1" width="160" relative="1" as="geometry">
            <mxPoint x="1255.3599999999997" y="483.04999999999984" as="sourcePoint" />
            <mxPoint x="1154.9999999999982" y="525" as="targetPoint" />
            <mxPoint as="offset" />
          </mxGeometry>
        </mxCell>
        <mxCell id="J3ixDLLctHBhhOuJPxoI-11" value="Extend" style="endArrow=block;endSize=16;endFill=0;html=1;dashed=1;exitX=0;exitY=0.571;exitDx=0;exitDy=0;exitPerimeter=0;" parent="1" source="PEsu_zmEFKTXnumoR2Yf-32" target="PEsu_zmEFKTXnumoR2Yf-22" edge="1">
          <mxGeometry x="-0.5715" y="-2" width="160" relative="1" as="geometry">
            <mxPoint x="1245.0000000000014" y="375" as="sourcePoint" />
            <mxPoint x="1141.9951168745365" y="500.3883716349716" as="targetPoint" />
            <mxPoint as="offset" />
          </mxGeometry>
        </mxCell>
        <mxCell id="J3ixDLLctHBhhOuJPxoI-12" value="Extend" style="endArrow=block;endSize=16;endFill=0;html=1;dashed=1;" parent="1" source="PEsu_zmEFKTXnumoR2Yf-31" target="PEsu_zmEFKTXnumoR2Yf-22" edge="1">
          <mxGeometry x="-0.3173" y="-3" width="160" relative="1" as="geometry">
            <mxPoint x="1255" y="479.9699999999999" as="sourcePoint" />
            <mxPoint x="1145" y="330" as="targetPoint" />
            <mxPoint as="offset" />
          </mxGeometry>
        </mxCell>
        <mxCell id="J3ixDLLctHBhhOuJPxoI-13" value="Extend" style="endArrow=block;endSize=16;endFill=0;html=1;dashed=1;exitX=0.096;exitY=0.782;exitDx=0;exitDy=0;exitPerimeter=0;" parent="1" source="PEsu_zmEFKTXnumoR2Yf-30" target="PEsu_zmEFKTXnumoR2Yf-22" edge="1">
          <mxGeometry x="-0.3173" y="-3" width="160" relative="1" as="geometry">
            <mxPoint x="1245.000404198139" y="300.00473570731174" as="sourcePoint" />
            <mxPoint x="1153.0732017439911" y="284.4128646551403" as="targetPoint" />
            <mxPoint as="offset" />
          </mxGeometry>
        </mxCell>
        <mxCell id="J3ixDLLctHBhhOuJPxoI-15" value="Extend" style="endArrow=block;endSize=16;endFill=0;html=1;dashed=1;exitX=0;exitY=1;exitDx=0;exitDy=0;" parent="1" source="PEsu_zmEFKTXnumoR2Yf-29" target="PEsu_zmEFKTXnumoR2Yf-22" edge="1">
          <mxGeometry x="-0.3173" y="-3" width="160" relative="1" as="geometry">
            <mxPoint x="1190.12" y="268.29" as="sourcePoint" />
            <mxPoint x="1075" y="299.99999999999994" as="targetPoint" />
            <mxPoint as="offset" />
          </mxGeometry>
        </mxCell>
        <mxCell id="J3ixDLLctHBhhOuJPxoI-16" value="Extend" style="endArrow=block;endSize=16;endFill=0;html=1;dashed=1;exitX=0;exitY=1;exitDx=0;exitDy=0;entryX=0.748;entryY=0.033;entryDx=0;entryDy=0;entryPerimeter=0;" parent="1" source="PEsu_zmEFKTXnumoR2Yf-27" target="PEsu_zmEFKTXnumoR2Yf-21" edge="1">
          <mxGeometry x="-0.3273" y="6" width="160" relative="1" as="geometry">
            <mxPoint x="1255.6399999999999" y="303.74" as="sourcePoint" />
            <mxPoint x="1140.52" y="335.44999999999993" as="targetPoint" />
            <mxPoint as="offset" />
          </mxGeometry>
        </mxCell>
        <mxCell id="J3ixDLLctHBhhOuJPxoI-17" value="Extend" style="endArrow=block;endSize=16;endFill=0;html=1;dashed=1;exitX=0;exitY=0.5;exitDx=0;exitDy=0;" parent="1" source="PEsu_zmEFKTXnumoR2Yf-28" edge="1">
          <mxGeometry x="-0.3273" y="6" width="160" relative="1" as="geometry">
            <mxPoint x="981.1590217972389" y="187.33252104683635" as="sourcePoint" />
            <mxPoint x="955" y="240" as="targetPoint" />
            <mxPoint as="offset" />
          </mxGeometry>
        </mxCell>
        <mxCell id="J3ixDLLctHBhhOuJPxoI-18" value="Extends" style="endArrow=block;endSize=16;endFill=0;html=1;dashed=1;exitX=0.64;exitY=0.994;exitDx=0;exitDy=0;entryX=0;entryY=0;entryDx=0;entryDy=0;exitPerimeter=0;" parent="1" source="PEsu_zmEFKTXnumoR2Yf-26" target="PEsu_zmEFKTXnumoR2Yf-21" edge="1">
          <mxGeometry x="-0.3273" y="6" width="160" relative="1" as="geometry">
            <mxPoint x="978.479021797239" y="179.64252104683635" as="sourcePoint" />
            <mxPoint x="952.3199999999999" y="232.31000000000006" as="targetPoint" />
            <mxPoint as="offset" />
          </mxGeometry>
        </mxCell>
        <mxCell id="J3ixDLLctHBhhOuJPxoI-19" value="Extend" style="endArrow=block;endSize=16;endFill=0;html=1;dashed=1;entryX=1;entryY=0;entryDx=0;entryDy=0;" parent="1" source="PEsu_zmEFKTXnumoR2Yf-25" target="PEsu_zmEFKTXnumoR2Yf-27" edge="1">
          <mxGeometry x="-0.3294" y="4" width="160" relative="1" as="geometry">
            <mxPoint x="988.479021797239" y="189.64252104683635" as="sourcePoint" />
            <mxPoint x="1035" y="140" as="targetPoint" />
            <mxPoint as="offset" />
          </mxGeometry>
        </mxCell>
        <mxCell id="J3ixDLLctHBhhOuJPxoI-20" value="Extend" style="endArrow=block;endSize=16;endFill=0;html=1;dashed=1;entryX=0.967;entryY=0.286;entryDx=0;entryDy=0;entryPerimeter=0;" parent="1" source="PEsu_zmEFKTXnumoR2Yf-4" target="PEsu_zmEFKTXnumoR2Yf-67" edge="1">
          <mxGeometry x="-0.2054" width="160" relative="1" as="geometry">
            <mxPoint x="768.1590217972391" y="347.33252104683635" as="sourcePoint" />
            <mxPoint x="647.853031391945" y="496.0734843040275" as="targetPoint" />
            <mxPoint as="offset" />
          </mxGeometry>
        </mxCell>
        <mxCell id="J3ixDLLctHBhhOuJPxoI-21" value="Extend" style="endArrow=block;endSize=16;endFill=0;html=1;dashed=1;exitX=0.763;exitY=0.96;exitDx=0;exitDy=0;exitPerimeter=0;entryX=0;entryY=0;entryDx=0;entryDy=0;" parent="1" source="DOy3Ms5891rvQtxvsLgi-11" target="fIi_ZgyzsDymGvnEUihj-2" edge="1">
          <mxGeometry x="-0.2099" width="160" relative="1" as="geometry">
            <mxPoint x="887.3726723918251" y="312.6273276081748" as="sourcePoint" />
            <mxPoint x="692.6273276081688" y="507.372672391831" as="targetPoint" />
            <mxPoint as="offset" />
          </mxGeometry>
        </mxCell>
        <mxCell id="J3ixDLLctHBhhOuJPxoI-22" value="Extend" style="endArrow=block;endSize=16;endFill=0;html=1;dashed=1;" parent="1" source="DOy3Ms5891rvQtxvsLgi-13" target="PEsu_zmEFKTXnumoR2Yf-67" edge="1">
          <mxGeometry x="-0.2054" width="160" relative="1" as="geometry">
            <mxPoint x="897.3726723918251" y="322.6273276081748" as="sourcePoint" />
            <mxPoint x="702.6273276081688" y="517.372672391831" as="targetPoint" />
            <mxPoint as="offset" />
          </mxGeometry>
        </mxCell>
        <mxCell id="J3ixDLLctHBhhOuJPxoI-23" value="Extend" style="endArrow=block;endSize=16;endFill=0;html=1;dashed=1;entryX=0.5;entryY=1;entryDx=0;entryDy=0;exitX=0.5;exitY=0;exitDx=0;exitDy=0;" parent="1" source="DOy3Ms5891rvQtxvsLgi-15" target="PEsu_zmEFKTXnumoR2Yf-67" edge="1">
          <mxGeometry x="-0.2054" width="160" relative="1" as="geometry">
            <mxPoint x="871.5551155012406" y="716.7471793613925" as="sourcePoint" />
            <mxPoint x="696.3929932939357" y="585.2947449704518" as="targetPoint" />
            <mxPoint as="offset" />
          </mxGeometry>
        </mxCell>
        <mxCell id="J3ixDLLctHBhhOuJPxoI-24" value="Extend" style="endArrow=block;endSize=16;endFill=0;html=1;dashed=1;entryX=0;entryY=1;entryDx=0;entryDy=0;" parent="1" source="DOy3Ms5891rvQtxvsLgi-25" target="PEsu_zmEFKTXnumoR2Yf-67" edge="1">
          <mxGeometry x="-0.2054" width="160" relative="1" as="geometry">
            <mxPoint x="685" y="1010" as="sourcePoint" />
            <mxPoint x="665" y="570" as="targetPoint" />
            <mxPoint as="offset" />
          </mxGeometry>
        </mxCell>
        <mxCell id="J3ixDLLctHBhhOuJPxoI-25" value="Extend" style="endArrow=block;endSize=16;endFill=0;html=1;dashed=1;entryX=0;entryY=1;entryDx=0;entryDy=0;" parent="1" source="DOy3Ms5891rvQtxvsLgi-28" target="DOy3Ms5891rvQtxvsLgi-25" edge="1">
          <mxGeometry x="-0.2054" width="160" relative="1" as="geometry">
            <mxPoint x="695" y="1020" as="sourcePoint" />
            <mxPoint x="675" y="580" as="targetPoint" />
            <mxPoint as="offset" />
          </mxGeometry>
        </mxCell>
        <mxCell id="J3ixDLLctHBhhOuJPxoI-26" value="Extend" style="endArrow=block;endSize=16;endFill=0;html=1;dashed=1;entryX=0.5;entryY=1;entryDx=0;entryDy=0;" parent="1" source="DOy3Ms5891rvQtxvsLgi-32" target="DOy3Ms5891rvQtxvsLgi-25" edge="1">
          <mxGeometry x="-0.2054" width="160" relative="1" as="geometry">
            <mxPoint x="355.7333804339137" y="719.4341791080722" as="sourcePoint" />
            <mxPoint x="403.0048831254635" y="679.6116283650279" as="targetPoint" />
            <mxPoint as="offset" />
          </mxGeometry>
        </mxCell>
        <mxCell id="J3ixDLLctHBhhOuJPxoI-27" value="Extend" style="endArrow=block;endSize=16;endFill=0;html=1;dashed=1;exitX=0.5;exitY=0;exitDx=0;exitDy=0;" parent="1" source="DOy3Ms5891rvQtxvsLgi-30" target="DOy3Ms5891rvQtxvsLgi-25" edge="1">
          <mxGeometry x="-0.2054" width="160" relative="1" as="geometry">
            <mxPoint x="365.7333804339137" y="729.4341791080722" as="sourcePoint" />
            <mxPoint x="413.0048831254635" y="689.6116283650279" as="targetPoint" />
            <mxPoint as="offset" />
          </mxGeometry>
        </mxCell>
        <mxCell id="J3ixDLLctHBhhOuJPxoI-28" value="Extend" style="endArrow=block;endSize=16;endFill=0;html=1;dashed=1;entryX=0.97;entryY=0.787;entryDx=0;entryDy=0;entryPerimeter=0;exitX=0.353;exitY=-0.021;exitDx=0;exitDy=0;exitPerimeter=0;" parent="1" source="DOy3Ms5891rvQtxvsLgi-39" target="DOy3Ms5891rvQtxvsLgi-25" edge="1">
          <mxGeometry x="-0.2054" width="160" relative="1" as="geometry">
            <mxPoint x="375.7333804339137" y="739.4341791080722" as="sourcePoint" />
            <mxPoint x="423.0048831254635" y="699.6116283650279" as="targetPoint" />
            <mxPoint as="offset" />
          </mxGeometry>
        </mxCell>
        <mxCell id="J3ixDLLctHBhhOuJPxoI-29" value="Extend" style="endArrow=block;endSize=16;endFill=0;html=1;dashed=1;entryX=0.38;entryY=1.038;entryDx=0;entryDy=0;entryPerimeter=0;" parent="1" source="DOy3Ms5891rvQtxvsLgi-35" target="DOy3Ms5891rvQtxvsLgi-32" edge="1">
          <mxGeometry x="-0.2054" width="160" relative="1" as="geometry">
            <mxPoint x="355.7333804339137" y="719.4341791080722" as="sourcePoint" />
            <mxPoint x="403.0048831254635" y="679.6116283650279" as="targetPoint" />
            <mxPoint as="offset" />
          </mxGeometry>
        </mxCell>
        <mxCell id="J3ixDLLctHBhhOuJPxoI-30" value="Extend" style="endArrow=block;endSize=16;endFill=0;html=1;dashed=1;entryX=1;entryY=1;entryDx=0;entryDy=0;exitX=0;exitY=0;exitDx=0;exitDy=0;" parent="1" source="DOy3Ms5891rvQtxvsLgi-37" target="DOy3Ms5891rvQtxvsLgi-32" edge="1">
          <mxGeometry x="-0.2054" width="160" relative="1" as="geometry">
            <mxPoint x="318.06717480252087" y="950.0813945559153" as="sourcePoint" />
            <mxPoint x="324.20000000000005" y="882.6599999999999" as="targetPoint" />
            <mxPoint as="offset" />
          </mxGeometry>
        </mxCell>
        <mxCell id="IGPOGFFqoMFYPmlBidTe-1" value="작성완료" style="ellipse;whiteSpace=wrap;html=1;" parent="1" vertex="1">
          <mxGeometry x="1075" width="90" height="70" as="geometry" />
        </mxCell>
        <mxCell id="IGPOGFFqoMFYPmlBidTe-2" value="Extend" style="endArrow=block;endSize=16;endFill=0;html=1;dashed=1;exitX=0;exitY=0.5;exitDx=0;exitDy=0;" parent="1" source="IGPOGFFqoMFYPmlBidTe-1" target="PEsu_zmEFKTXnumoR2Yf-27" edge="1">
          <mxGeometry x="-0.3294" y="4" width="160" relative="1" as="geometry">
            <mxPoint x="993.5999399890227" y="70.00414941757623" as="sourcePoint" />
            <mxPoint x="945.0022553297497" y="95.42784920562536" as="targetPoint" />
            <mxPoint as="offset" />
          </mxGeometry>
        </mxCell>
        <mxCell id="IGPOGFFqoMFYPmlBidTe-4" value="처리구분" style="ellipse;whiteSpace=wrap;html=1;" parent="1" vertex="1">
          <mxGeometry x="645" y="90" width="90" height="70" as="geometry" />
        </mxCell>
        <mxCell id="IGPOGFFqoMFYPmlBidTe-5" value="의견/지시" style="ellipse;whiteSpace=wrap;html=1;" parent="1" vertex="1">
          <mxGeometry x="695" y="10" width="90" height="70" as="geometry" />
        </mxCell>
        <mxCell id="IGPOGFFqoMFYPmlBidTe-6" value="include" style="endArrow=block;endSize=16;endFill=0;html=1;dashed=1;exitX=1;exitY=1;exitDx=0;exitDy=0;entryX=0;entryY=0;entryDx=0;entryDy=0;" parent="1" source="IGPOGFFqoMFYPmlBidTe-5" target="PEsu_zmEFKTXnumoR2Yf-26" edge="1">
          <mxGeometry x="-0.3294" y="4" width="160" relative="1" as="geometry">
            <mxPoint x="884.3199999999954" y="13.730000000000114" as="sourcePoint" />
            <mxPoint x="775.0013536436297" y="90.00079581764497" as="targetPoint" />
            <mxPoint as="offset" />
          </mxGeometry>
        </mxCell>
        <mxCell id="IGPOGFFqoMFYPmlBidTe-8" value="&amp;lt;&amp;lt;include&amp;gt;&amp;gt;" style="edgeStyle=none;html=1;endArrow=open;verticalAlign=bottom;dashed=1;labelBackgroundColor=none;" parent="1" edge="1">
          <mxGeometry width="160" relative="1" as="geometry">
            <mxPoint x="1690" y="610" as="sourcePoint" />
            <mxPoint x="1580" y="610" as="targetPoint" />
          </mxGeometry>
        </mxCell>
        <mxCell id="IGPOGFFqoMFYPmlBidTe-10" value="include" style="endArrow=block;endSize=16;endFill=0;html=1;dashed=1;exitX=1.032;exitY=0.577;exitDx=0;exitDy=0;entryX=0;entryY=0.5;entryDx=0;entryDy=0;exitPerimeter=0;" parent="1" source="IGPOGFFqoMFYPmlBidTe-4" target="PEsu_zmEFKTXnumoR2Yf-26" edge="1">
          <mxGeometry x="-0.3294" y="4" width="160" relative="1" as="geometry">
            <mxPoint x="744.9951168745274" y="140.00162836502108" as="sourcePoint" />
            <mxPoint x="821.0048831254635" y="180.77837163497185" as="targetPoint" />
            <mxPoint as="offset" />
          </mxGeometry>
        </mxCell>
        <mxCell id="IGPOGFFqoMFYPmlBidTe-11" value="처리구분" style="ellipse;whiteSpace=wrap;html=1;" parent="1" vertex="1">
          <mxGeometry x="1515" y="250" width="90" height="70" as="geometry" />
        </mxCell>
        <mxCell id="IGPOGFFqoMFYPmlBidTe-12" value="의견/지시" style="ellipse;whiteSpace=wrap;html=1;" parent="1" vertex="1">
          <mxGeometry x="1455" y="160" width="90" height="70" as="geometry" />
        </mxCell>
        <mxCell id="IGPOGFFqoMFYPmlBidTe-15" value="include" style="endArrow=block;endSize=16;endFill=0;html=1;dashed=1;exitX=0;exitY=1;exitDx=0;exitDy=0;entryX=1;entryY=0.5;entryDx=0;entryDy=0;" parent="1" source="IGPOGFFqoMFYPmlBidTe-12" target="PEsu_zmEFKTXnumoR2Yf-30" edge="1">
          <mxGeometry x="-0.3294" y="4" width="160" relative="1" as="geometry">
            <mxPoint x="1345.0002552051556" y="224.51282634077688" as="sourcePoint" />
            <mxPoint x="1335" y="265" as="targetPoint" />
            <mxPoint as="offset" />
          </mxGeometry>
        </mxCell>
        <mxCell id="IGPOGFFqoMFYPmlBidTe-16" value="include" style="endArrow=block;endSize=16;endFill=0;html=1;dashed=1;exitX=0;exitY=0.5;exitDx=0;exitDy=0;entryX=1;entryY=0.5;entryDx=0;entryDy=0;" parent="1" source="IGPOGFFqoMFYPmlBidTe-11" target="PEsu_zmEFKTXnumoR2Yf-30" edge="1">
          <mxGeometry x="-0.3294" y="4" width="160" relative="1" as="geometry">
            <mxPoint x="1397.8799999999865" y="229.9999999999999" as="sourcePoint" />
            <mxPoint x="1325" y="270" as="targetPoint" />
            <mxPoint as="offset" />
          </mxGeometry>
        </mxCell>
        <mxCell id="IGPOGFFqoMFYPmlBidTe-22" value="include" style="endArrow=block;endSize=16;endFill=0;html=1;dashed=1;exitX=0;exitY=0.5;exitDx=0;exitDy=0;" parent="1" source="IGPOGFFqoMFYPmlBidTe-11" target="PEsu_zmEFKTXnumoR2Yf-31" edge="1">
          <mxGeometry x="-0.3294" y="4" width="160" relative="1" as="geometry">
            <mxPoint x="1415.000000000005" y="389.9999999999999" as="sourcePoint" />
            <mxPoint x="1345" y="359.9999999999999" as="targetPoint" />
            <mxPoint as="offset" />
          </mxGeometry>
        </mxCell>
        <mxCell id="IGPOGFFqoMFYPmlBidTe-23" value="include" style="endArrow=block;endSize=16;endFill=0;html=1;dashed=1;exitX=0;exitY=0.5;exitDx=0;exitDy=0;entryX=1;entryY=0;entryDx=0;entryDy=0;" parent="1" source="IGPOGFFqoMFYPmlBidTe-11" target="PEsu_zmEFKTXnumoR2Yf-32" edge="1">
          <mxGeometry x="-0.3294" y="4" width="160" relative="1" as="geometry">
            <mxPoint x="1405.000000000005" y="455.9999999999999" as="sourcePoint" />
            <mxPoint x="1415" y="400" as="targetPoint" />
            <mxPoint as="offset" />
          </mxGeometry>
        </mxCell>
        <mxCell id="IGPOGFFqoMFYPmlBidTe-24" value="include" style="endArrow=block;endSize=16;endFill=0;html=1;dashed=1;entryX=0.972;entryY=0.269;entryDx=0;entryDy=0;entryPerimeter=0;exitX=0;exitY=1;exitDx=0;exitDy=0;" parent="1" source="IGPOGFFqoMFYPmlBidTe-12" target="PEsu_zmEFKTXnumoR2Yf-31" edge="1">
          <mxGeometry x="-0.3294" y="4" width="160" relative="1" as="geometry">
            <mxPoint x="1465" y="220" as="sourcePoint" />
            <mxPoint x="1335" y="370" as="targetPoint" />
            <mxPoint as="offset" />
          </mxGeometry>
        </mxCell>
        <mxCell id="IGPOGFFqoMFYPmlBidTe-25" value="include" style="endArrow=block;endSize=16;endFill=0;html=1;dashed=1;exitX=0;exitY=1;exitDx=0;exitDy=0;entryX=1;entryY=0;entryDx=0;entryDy=0;" parent="1" source="IGPOGFFqoMFYPmlBidTe-12" target="PEsu_zmEFKTXnumoR2Yf-32" edge="1">
          <mxGeometry x="-0.3294" y="4" width="160" relative="1" as="geometry">
            <mxPoint x="1485.000000000005" y="294.9999999999999" as="sourcePoint" />
            <mxPoint x="1335" y="470" as="targetPoint" />
            <mxPoint as="offset" />
          </mxGeometry>
        </mxCell>
        <mxCell id="eSkC3mRIilJpVDYTf376-1" value="기안한문서" style="ellipse;whiteSpace=wrap;html=1;" parent="1" vertex="1">
          <mxGeometry x="1295" y="456" width="90" height="70" as="geometry" />
        </mxCell>
        <mxCell id="eSkC3mRIilJpVDYTf376-2" value="Extend" style="endArrow=block;endSize=16;endFill=0;html=1;dashed=1;exitX=0;exitY=0.5;exitDx=0;exitDy=0;entryX=1;entryY=0.5;entryDx=0;entryDy=0;" parent="1" source="eSkC3mRIilJpVDYTf376-1" target="PEsu_zmEFKTXnumoR2Yf-23" edge="1">
          <mxGeometry x="-0.1951" width="160" relative="1" as="geometry">
            <mxPoint x="1191.09" y="622.58" as="sourcePoint" />
            <mxPoint x="1085.0003106453062" y="599.9983040787873" as="targetPoint" />
            <mxPoint as="offset" />
          </mxGeometry>
        </mxCell>
        <mxCell id="eSkC3mRIilJpVDYTf376-3" value="결재한문서" style="ellipse;whiteSpace=wrap;html=1;" parent="1" vertex="1">
          <mxGeometry x="1235" y="530" width="90" height="70" as="geometry" />
        </mxCell>
        <mxCell id="eSkC3mRIilJpVDYTf376-4" value="Extend" style="endArrow=block;endSize=16;endFill=0;html=1;dashed=1;exitX=0;exitY=0.5;exitDx=0;exitDy=0;entryX=1;entryY=0.5;entryDx=0;entryDy=0;" parent="1" source="eSkC3mRIilJpVDYTf376-3" target="PEsu_zmEFKTXnumoR2Yf-23" edge="1">
          <mxGeometry x="-0.1951" width="160" relative="1" as="geometry">
            <mxPoint x="1131.09" y="692.58" as="sourcePoint" />
            <mxPoint x="1085" y="491" as="targetPoint" />
            <mxPoint as="offset" />
          </mxGeometry>
        </mxCell>
        <mxCell id="eSkC3mRIilJpVDYTf376-6" value="Extend" style="endArrow=block;endSize=16;endFill=0;html=1;dashed=1;entryX=1;entryY=0.5;entryDx=0;entryDy=0;exitX=0;exitY=0.5;exitDx=0;exitDy=0;" parent="1" source="eSkC3mRIilJpVDYTf376-1" target="PEsu_zmEFKTXnumoR2Yf-24" edge="1">
          <mxGeometry x="-0.1951" width="160" relative="1" as="geometry">
            <mxPoint x="1355" y="590" as="sourcePoint" />
            <mxPoint x="1235" y="501" as="targetPoint" />
            <mxPoint as="offset" />
          </mxGeometry>
        </mxCell>
        <mxCell id="eSkC3mRIilJpVDYTf376-7" value="Extend" style="endArrow=block;endSize=16;endFill=0;html=1;dashed=1;entryX=0.889;entryY=0.714;entryDx=0;entryDy=0;exitX=0;exitY=0.5;exitDx=0;exitDy=0;entryPerimeter=0;" parent="1" source="eSkC3mRIilJpVDYTf376-3" target="PEsu_zmEFKTXnumoR2Yf-24" edge="1">
          <mxGeometry x="-0.1951" width="160" relative="1" as="geometry">
            <mxPoint x="1205" y="590" as="sourcePoint" />
            <mxPoint x="1055" y="614" as="targetPoint" />
            <mxPoint as="offset" />
          </mxGeometry>
        </mxCell>
        <mxCell id="Yp1-gwKtbLMfh5_p5UJI-12" value="Extend" style="endArrow=block;endSize=16;endFill=0;html=1;dashed=1;entryX=0.5;entryY=1;entryDx=0;entryDy=0;exitX=0.5;exitY=0;exitDx=0;exitDy=0;" parent="1" source="Yp1-gwKtbLMfh5_p5UJI-6" target="DOy3Ms5891rvQtxvsLgi-13" edge="1">
          <mxGeometry x="-0.2054" width="160" relative="1" as="geometry">
            <mxPoint x="453.1801948466052" y="830.2512626584708" as="sourcePoint" />
            <mxPoint x="426.81980515339467" y="769.7487373415292" as="targetPoint" />
            <mxPoint as="offset" />
          </mxGeometry>
        </mxCell>
        <mxCell id="Yp1-gwKtbLMfh5_p5UJI-13" value="Extend" style="endArrow=block;endSize=16;endFill=0;html=1;dashed=1;entryX=0.5;entryY=1;entryDx=0;entryDy=0;exitX=0;exitY=0;exitDx=0;exitDy=0;" parent="1" source="Yp1-gwKtbLMfh5_p5UJI-8" edge="1">
          <mxGeometry x="-0.2054" width="160" relative="1" as="geometry">
            <mxPoint x="940" y="760" as="sourcePoint" />
            <mxPoint x="990" y="630" as="targetPoint" />
            <mxPoint as="offset" />
          </mxGeometry>
        </mxCell>
        <mxCell id="Yp1-gwKtbLMfh5_p5UJI-14" value="Extend" style="endArrow=block;endSize=16;endFill=0;html=1;dashed=1;entryX=1;entryY=0.5;entryDx=0;entryDy=0;exitX=0;exitY=0;exitDx=0;exitDy=0;" parent="1" source="Yp1-gwKtbLMfh5_p5UJI-10" target="DOy3Ms5891rvQtxvsLgi-13" edge="1">
          <mxGeometry x="-0.2054" width="160" relative="1" as="geometry">
            <mxPoint x="1075" y="690" as="sourcePoint" />
            <mxPoint x="990" y="580" as="targetPoint" />
            <mxPoint as="offset" />
          </mxGeometry>
        </mxCell>
        <mxCell id="Yp1-gwKtbLMfh5_p5UJI-15" value="게시글 업로드" style="ellipse;whiteSpace=wrap;html=1;" parent="1" vertex="1">
          <mxGeometry x="970" y="890" width="80" height="70" as="geometry" />
        </mxCell>
        <mxCell id="Yp1-gwKtbLMfh5_p5UJI-16" value="Extend" style="endArrow=block;endSize=16;endFill=0;html=1;dashed=1;entryX=0.5;entryY=1;entryDx=0;entryDy=0;exitX=0.5;exitY=0;exitDx=0;exitDy=0;" parent="1" source="Yp1-gwKtbLMfh5_p5UJI-15" target="Yp1-gwKtbLMfh5_p5UJI-8" edge="1">
          <mxGeometry x="-0.2054" width="160" relative="1" as="geometry">
            <mxPoint x="1053.1801948466052" y="750.2512626584708" as="sourcePoint" />
            <mxPoint x="1000" y="640" as="targetPoint" />
            <mxPoint as="offset" />
          </mxGeometry>
        </mxCell>
        <mxCell id="Yp1-gwKtbLMfh5_p5UJI-17" value="게시글 수정" style="ellipse;whiteSpace=wrap;html=1;" parent="1" vertex="1">
          <mxGeometry x="1090" y="970" width="80" height="70" as="geometry" />
        </mxCell>
        <mxCell id="Yp1-gwKtbLMfh5_p5UJI-19" value="게시글 삭제" style="ellipse;whiteSpace=wrap;html=1;" parent="1" vertex="1">
          <mxGeometry x="1190" y="1000" width="80" height="70" as="geometry" />
        </mxCell>
        <mxCell id="Yp1-gwKtbLMfh5_p5UJI-21" value="Extend" style="endArrow=block;endSize=16;endFill=0;html=1;dashed=1;entryX=1;entryY=0.5;entryDx=0;entryDy=0;exitX=0.5;exitY=0;exitDx=0;exitDy=0;" parent="1" source="Yp1-gwKtbLMfh5_p5UJI-15" target="Yp1-gwKtbLMfh5_p5UJI-6" edge="1">
          <mxGeometry x="-0.2054" width="160" relative="1" as="geometry">
            <mxPoint x="1050" y="900" as="sourcePoint" />
            <mxPoint x="1075" y="800" as="targetPoint" />
            <mxPoint as="offset" />
          </mxGeometry>
        </mxCell>
        <mxCell id="Yp1-gwKtbLMfh5_p5UJI-22" value="Extend" style="endArrow=block;endSize=16;endFill=0;html=1;dashed=1;entryX=0.5;entryY=1;entryDx=0;entryDy=0;exitX=0.5;exitY=0;exitDx=0;exitDy=0;" parent="1" source="Yp1-gwKtbLMfh5_p5UJI-15" target="Yp1-gwKtbLMfh5_p5UJI-10" edge="1">
          <mxGeometry x="-0.2054" width="160" relative="1" as="geometry">
            <mxPoint x="1050" y="900" as="sourcePoint" />
            <mxPoint x="1035" y="790" as="targetPoint" />
            <mxPoint as="offset" />
          </mxGeometry>
        </mxCell>
        <mxCell id="Yp1-gwKtbLMfh5_p5UJI-24" value="Extend" style="endArrow=block;endSize=16;endFill=0;html=1;dashed=1;exitX=1;exitY=0;exitDx=0;exitDy=0;entryX=0.5;entryY=1;entryDx=0;entryDy=0;" parent="1" source="Yp1-gwKtbLMfh5_p5UJI-17" target="Yp1-gwKtbLMfh5_p5UJI-33" edge="1">
          <mxGeometry x="-0.2054" width="160" relative="1" as="geometry">
            <mxPoint x="1156.715728752538" y="870.2512626584708" as="sourcePoint" />
            <mxPoint x="1120" y="760" as="targetPoint" />
            <mxPoint as="offset" />
          </mxGeometry>
        </mxCell>
        <mxCell id="Yp1-gwKtbLMfh5_p5UJI-26" value="Extend" style="endArrow=block;endSize=16;endFill=0;html=1;dashed=1;exitX=0.5;exitY=0;exitDx=0;exitDy=0;entryX=0.5;entryY=1;entryDx=0;entryDy=0;" parent="1" source="Yp1-gwKtbLMfh5_p5UJI-19" target="Yp1-gwKtbLMfh5_p5UJI-33" edge="1">
          <mxGeometry x="-0.2054" width="160" relative="1" as="geometry">
            <mxPoint x="1200" y="825" as="sourcePoint" />
            <mxPoint x="1080" y="766.2" as="targetPoint" />
            <mxPoint as="offset" />
          </mxGeometry>
        </mxCell>
        <mxCell id="Yp1-gwKtbLMfh5_p5UJI-28" value="임시 저장" style="ellipse;whiteSpace=wrap;html=1;" parent="1" vertex="1">
          <mxGeometry x="992" y="1010" width="57" height="60" as="geometry" />
        </mxCell>
        <mxCell id="Yp1-gwKtbLMfh5_p5UJI-29" value="Extend" style="endArrow=block;endSize=16;endFill=0;html=1;dashed=1;exitX=0.5;exitY=0;exitDx=0;exitDy=0;entryX=0.5;entryY=1;entryDx=0;entryDy=0;" parent="1" source="Yp1-gwKtbLMfh5_p5UJI-28" target="Yp1-gwKtbLMfh5_p5UJI-15" edge="1">
          <mxGeometry x="-0.2054" width="160" relative="1" as="geometry">
            <mxPoint x="1141.715728752538" y="900.2512626584708" as="sourcePoint" />
            <mxPoint x="991.4185079117856" y="815.558835111492" as="targetPoint" />
            <mxPoint as="offset" />
          </mxGeometry>
        </mxCell>
        <mxCell id="Yp1-gwKtbLMfh5_p5UJI-33" value="게시글 조회" style="ellipse;whiteSpace=wrap;html=1;" parent="1" vertex="1">
          <mxGeometry x="1160" y="830" width="80" height="70" as="geometry" />
        </mxCell>
        <mxCell id="Yp1-gwKtbLMfh5_p5UJI-34" value="Extend" style="endArrow=block;endSize=16;endFill=0;html=1;dashed=1;exitX=0.5;exitY=0;exitDx=0;exitDy=0;entryX=1;entryY=1;entryDx=0;entryDy=0;" parent="1" source="Yp1-gwKtbLMfh5_p5UJI-33" target="Yp1-gwKtbLMfh5_p5UJI-10" edge="1">
          <mxGeometry x="-0.2054" width="160" relative="1" as="geometry">
            <mxPoint x="1290" y="815" as="sourcePoint" />
            <mxPoint x="1200.3600000000001" y="675.01" as="targetPoint" />
            <mxPoint as="offset" />
          </mxGeometry>
        </mxCell>
        <mxCell id="Yp1-gwKtbLMfh5_p5UJI-36" value="Extend" style="endArrow=block;endSize=16;endFill=0;html=1;dashed=1;entryX=1;entryY=1;entryDx=0;entryDy=0;" parent="1" source="Yp1-gwKtbLMfh5_p5UJI-33" target="Yp1-gwKtbLMfh5_p5UJI-8" edge="1">
          <mxGeometry x="-0.2054" width="160" relative="1" as="geometry">
            <mxPoint x="1100" y="854.99" as="sourcePoint" />
            <mxPoint x="1108.8600000000001" y="740" as="targetPoint" />
            <mxPoint as="offset" />
          </mxGeometry>
        </mxCell>
        <mxCell id="Yp1-gwKtbLMfh5_p5UJI-37" value="Extend" style="endArrow=block;endSize=16;endFill=0;html=1;dashed=1;exitX=0;exitY=0.5;exitDx=0;exitDy=0;entryX=1;entryY=0.5;entryDx=0;entryDy=0;" parent="1" source="Yp1-gwKtbLMfh5_p5UJI-33" target="Yp1-gwKtbLMfh5_p5UJI-6" edge="1">
          <mxGeometry x="-0.2054" width="160" relative="1" as="geometry">
            <mxPoint x="1211.5" y="810" as="sourcePoint" />
            <mxPoint x="1220.3600000000001" y="695.01" as="targetPoint" />
            <mxPoint as="offset" />
          </mxGeometry>
        </mxCell>
        <mxCell id="Yp1-gwKtbLMfh5_p5UJI-38" value="댓글 업로드" style="ellipse;whiteSpace=wrap;html=1;" parent="1" vertex="1">
          <mxGeometry x="1290" y="940" width="80" height="70" as="geometry" />
        </mxCell>
        <mxCell id="Yp1-gwKtbLMfh5_p5UJI-39" value="Extend" style="endArrow=block;endSize=16;endFill=0;html=1;dashed=1;exitX=0;exitY=0;exitDx=0;exitDy=0;entryX=1;entryY=1;entryDx=0;entryDy=0;" parent="1" source="Yp1-gwKtbLMfh5_p5UJI-38" target="Yp1-gwKtbLMfh5_p5UJI-33" edge="1">
          <mxGeometry x="-0.2054" width="160" relative="1" as="geometry">
            <mxPoint x="1291.7157287525383" y="880.251262658471" as="sourcePoint" />
            <mxPoint x="1279" y="835" as="targetPoint" />
            <mxPoint as="offset" />
          </mxGeometry>
        </mxCell>
        <mxCell id="Yp1-gwKtbLMfh5_p5UJI-41" value="댓글 삭제" style="ellipse;whiteSpace=wrap;html=1;" parent="1" vertex="1">
          <mxGeometry x="1390" y="800" width="80" height="70" as="geometry" />
        </mxCell>
        <mxCell id="Yp1-gwKtbLMfh5_p5UJI-42" value="Extend" style="endArrow=block;endSize=16;endFill=0;html=1;dashed=1;exitX=0;exitY=0.5;exitDx=0;exitDy=0;entryX=1;entryY=0.5;entryDx=0;entryDy=0;" parent="1" source="Yp1-gwKtbLMfh5_p5UJI-41" target="Yp1-gwKtbLMfh5_p5UJI-33" edge="1">
          <mxGeometry x="-0.2054" width="160" relative="1" as="geometry">
            <mxPoint x="1296.7157287525383" y="810.251262658471" as="sourcePoint" />
            <mxPoint x="1165" y="755" as="targetPoint" />
            <mxPoint as="offset" />
          </mxGeometry>
        </mxCell>
        <mxCell id="Yp1-gwKtbLMfh5_p5UJI-43" value="댓글 수정" style="ellipse;whiteSpace=wrap;html=1;" parent="1" vertex="1">
          <mxGeometry x="1350" y="880" width="80" height="70" as="geometry" />
        </mxCell>
        <mxCell id="Yp1-gwKtbLMfh5_p5UJI-44" value="Extend" style="endArrow=block;endSize=16;endFill=0;html=1;dashed=1;exitX=0;exitY=0.5;exitDx=0;exitDy=0;entryX=1;entryY=0.5;entryDx=0;entryDy=0;" parent="1" source="Yp1-gwKtbLMfh5_p5UJI-43" target="Yp1-gwKtbLMfh5_p5UJI-33" edge="1">
          <mxGeometry x="-0.2054" width="160" relative="1" as="geometry">
            <mxPoint x="1321.7157287525383" y="850.251262658471" as="sourcePoint" />
            <mxPoint x="1190" y="795" as="targetPoint" />
            <mxPoint as="offset" />
          </mxGeometry>
        </mxCell>
        <mxCell id="Yp1-gwKtbLMfh5_p5UJI-46" value="작성 완료" style="ellipse;whiteSpace=wrap;html=1;" parent="1" vertex="1">
          <mxGeometry x="900" y="990" width="57" height="60" as="geometry" />
        </mxCell>
        <mxCell id="Yp1-gwKtbLMfh5_p5UJI-47" value="Extend" style="endArrow=block;endSize=16;endFill=0;html=1;dashed=1;exitX=1;exitY=0;exitDx=0;exitDy=0;entryX=0;entryY=1;entryDx=0;entryDy=0;" parent="1" source="Yp1-gwKtbLMfh5_p5UJI-46" target="Yp1-gwKtbLMfh5_p5UJI-15" edge="1">
          <mxGeometry x="-0.2054" width="160" relative="1" as="geometry">
            <mxPoint x="1073.215728752538" y="870.2512626584708" as="sourcePoint" />
            <mxPoint x="934.5" y="900" as="targetPoint" />
            <mxPoint as="offset" />
          </mxGeometry>
        </mxCell>
        <mxCell id="4sXwthDfvKZR0K0jUaKy-1" value="게시글 검색" style="ellipse;whiteSpace=wrap;html=1;" parent="1" vertex="1">
          <mxGeometry x="1350" y="690" width="80" height="70" as="geometry" />
        </mxCell>
        <mxCell id="4sXwthDfvKZR0K0jUaKy-2" value="Extend" style="endArrow=block;endSize=16;endFill=0;html=1;dashed=1;exitX=0;exitY=0;exitDx=0;exitDy=0;entryX=1;entryY=0.5;entryDx=0;entryDy=0;" parent="1" source="4sXwthDfvKZR0K0jUaKy-1" target="Yp1-gwKtbLMfh5_p5UJI-10" edge="1">
          <mxGeometry x="-0.2054" width="160" relative="1" as="geometry">
            <mxPoint x="1250" y="810" as="sourcePoint" />
            <mxPoint x="1266.8198051533946" y="689.748737341529" as="targetPoint" />
            <mxPoint as="offset" />
          </mxGeometry>
        </mxCell>
        <mxCell id="4sXwthDfvKZR0K0jUaKy-3" value="Extend" style="endArrow=block;endSize=16;endFill=0;html=1;dashed=1;exitX=0;exitY=0.5;exitDx=0;exitDy=0;entryX=1;entryY=0.5;entryDx=0;entryDy=0;" parent="1" source="4sXwthDfvKZR0K0jUaKy-1" target="Yp1-gwKtbLMfh5_p5UJI-8" edge="1">
          <mxGeometry x="-0.2054" width="160" relative="1" as="geometry">
            <mxPoint x="1260" y="820" as="sourcePoint" />
            <mxPoint x="1276.8198051533946" y="699.748737341529" as="targetPoint" />
            <mxPoint as="offset" />
          </mxGeometry>
        </mxCell>
        <mxCell id="4sXwthDfvKZR0K0jUaKy-4" value="Extend" style="endArrow=block;endSize=16;endFill=0;html=1;dashed=1;exitX=0;exitY=1;exitDx=0;exitDy=0;entryX=1;entryY=0.5;entryDx=0;entryDy=0;" parent="1" source="4sXwthDfvKZR0K0jUaKy-1" target="Yp1-gwKtbLMfh5_p5UJI-6" edge="1">
          <mxGeometry x="-0.2054" width="160" relative="1" as="geometry">
            <mxPoint x="1270" y="830" as="sourcePoint" />
            <mxPoint x="1286.8198051533946" y="709.748737341529" as="targetPoint" />
            <mxPoint as="offset" />
          </mxGeometry>
        </mxCell>
        <mxCell id="7x6PUVyvBxkaQapYcpTH-1" value="" style="endArrow=classic;html=1;entryX=0;entryY=0.5;entryDx=0;entryDy=0;exitX=1;exitY=0.3333333333333333;exitDx=0;exitDy=0;exitPerimeter=0;" parent="1" source="PEsu_zmEFKTXnumoR2Yf-65" target="DOy3Ms5891rvQtxvsLgi-18" edge="1">
          <mxGeometry width="50" height="50" relative="1" as="geometry">
            <mxPoint x="130" y="630" as="sourcePoint" />
            <mxPoint x="243.18019484660522" y="464.87873734152924" as="targetPoint" />
          </mxGeometry>
        </mxCell>
        <mxCell id="7x6PUVyvBxkaQapYcpTH-2" value="" style="endArrow=classic;html=1;entryX=0;entryY=0.5;entryDx=0;entryDy=0;exitX=1;exitY=0.5;exitDx=0;exitDy=0;" parent="1" source="DOy3Ms5891rvQtxvsLgi-18" target="PEsu_zmEFKTXnumoR2Yf-67" edge="1">
          <mxGeometry width="50" height="50" relative="1" as="geometry">
            <mxPoint x="130" y="640" as="sourcePoint" />
            <mxPoint x="270" y="415" as="targetPoint" />
          </mxGeometry>
        </mxCell>
        <mxCell id="7x6PUVyvBxkaQapYcpTH-3" value="" style="endArrow=classic;html=1;entryX=0;entryY=0.5;entryDx=0;entryDy=0;exitX=1;exitY=0.5;exitDx=0;exitDy=0;" parent="1" source="DOy3Ms5891rvQtxvsLgi-19" target="PEsu_zmEFKTXnumoR2Yf-67" edge="1">
          <mxGeometry width="50" height="50" relative="1" as="geometry">
            <mxPoint x="360" y="330" as="sourcePoint" />
            <mxPoint x="640" y="450" as="targetPoint" />
          </mxGeometry>
        </mxCell>
        <mxCell id="7x6PUVyvBxkaQapYcpTH-4" value="" style="endArrow=classic;html=1;entryX=0;entryY=0.5;entryDx=0;entryDy=0;exitX=1;exitY=0.3333333333333333;exitDx=0;exitDy=0;exitPerimeter=0;" parent="1" source="PEsu_zmEFKTXnumoR2Yf-65" target="DOy3Ms5891rvQtxvsLgi-19" edge="1">
          <mxGeometry width="50" height="50" relative="1" as="geometry">
            <mxPoint x="40" y="565" as="sourcePoint" />
            <mxPoint x="180" y="340" as="targetPoint" />
          </mxGeometry>
        </mxCell>
        <mxCell id="78OipM9IOy99-lYrfjTT-1" value="일정 추가" style="ellipse;whiteSpace=wrap;html=1;" parent="1" vertex="1">
          <mxGeometry x="340" y="110" width="90" height="70" as="geometry" />
        </mxCell>
        <mxCell id="78OipM9IOy99-lYrfjTT-2" value="Extend" style="endArrow=block;endSize=16;endFill=0;html=1;dashed=1;entryX=0;entryY=0;entryDx=0;entryDy=0;exitX=1;exitY=1;exitDx=0;exitDy=0;" parent="1" source="78OipM9IOy99-lYrfjTT-1" target="DOy3Ms5891rvQtxvsLgi-11" edge="1">
          <mxGeometry x="-0.2099" width="160" relative="1" as="geometry">
            <mxPoint x="477" y="100" as="sourcePoint" />
            <mxPoint x="735" y="500" as="targetPoint" />
            <mxPoint as="offset" />
          </mxGeometry>
        </mxCell>
        <mxCell id="78OipM9IOy99-lYrfjTT-3" value="일정 삭제" style="ellipse;whiteSpace=wrap;html=1;" parent="1" vertex="1">
          <mxGeometry x="520" y="30" width="90" height="70" as="geometry" />
        </mxCell>
        <mxCell id="78OipM9IOy99-lYrfjTT-4" value="Extend" style="endArrow=block;endSize=16;endFill=0;html=1;dashed=1;exitX=0.5;exitY=1;exitDx=0;exitDy=0;entryX=0.5;entryY=0;entryDx=0;entryDy=0;" parent="1" source="78OipM9IOy99-lYrfjTT-3" target="DOy3Ms5891rvQtxvsLgi-11" edge="1">
          <mxGeometry x="-0.2099" width="160" relative="1" as="geometry">
            <mxPoint x="446.8198051533948" y="119.74873734152925" as="sourcePoint" />
            <mxPoint x="553.1801948466052" y="220.25126265847075" as="targetPoint" />
            <mxPoint as="offset" />
          </mxGeometry>
        </mxCell>
        <mxCell id="78OipM9IOy99-lYrfjTT-7" value="일정 강조&lt;br&gt;배경색 지정" style="ellipse;whiteSpace=wrap;html=1;" parent="1" vertex="1">
          <mxGeometry x="300" y="185" width="90" height="70" as="geometry" />
        </mxCell>
        <mxCell id="78OipM9IOy99-lYrfjTT-8" value="Extend" style="endArrow=block;endSize=16;endFill=0;html=1;dashed=1;entryX=0;entryY=0.5;entryDx=0;entryDy=0;exitX=1;exitY=0.5;exitDx=0;exitDy=0;" parent="1" source="78OipM9IOy99-lYrfjTT-7" target="DOy3Ms5891rvQtxvsLgi-11" edge="1">
          <mxGeometry x="-0.2099" width="160" relative="1" as="geometry">
            <mxPoint x="466.8198051533948" y="139.74873734152925" as="sourcePoint" />
            <mxPoint x="553.1801948466052" y="220.25126265847075" as="targetPoint" />
            <mxPoint as="offset" />
          </mxGeometry>
        </mxCell>
        <mxCell id="zVTeGUb_1D3lMInnOZZ9-1" value="일정 수정" style="ellipse;whiteSpace=wrap;html=1;" parent="1" vertex="1">
          <mxGeometry x="410" y="40" width="90" height="70" as="geometry" />
        </mxCell>
        <mxCell id="zVTeGUb_1D3lMInnOZZ9-2" value="Extend" style="endArrow=block;endSize=16;endFill=0;html=1;dashed=1;entryX=0.284;entryY=0.04;entryDx=0;entryDy=0;exitX=1;exitY=1;exitDx=0;exitDy=0;entryPerimeter=0;" parent="1" source="zVTeGUb_1D3lMInnOZZ9-1" target="DOy3Ms5891rvQtxvsLgi-11" edge="1">
          <mxGeometry x="-0.2099" width="160" relative="1" as="geometry">
            <mxPoint x="426.8198051533948" y="179.74873734152925" as="sourcePoint" />
            <mxPoint x="553.1801948466052" y="220.25126265847075" as="targetPoint" />
            <mxPoint as="offset" />
          </mxGeometry>
        </mxCell>
        <mxCell id="LLBiNao7luYFCybffmW4-1" value="Actor" style="shape=umlActor;verticalLabelPosition=bottom;labelBackgroundColor=#ffffff;verticalAlign=top;html=1;outlineConnect=0;strokeColor=#000000;" parent="1" vertex="1">
          <mxGeometry x="1860" y="580" width="30" height="60" as="geometry" />
        </mxCell>
        <mxCell id="LLBiNao7luYFCybffmW4-6" value="게시글 삭제" style="ellipse;whiteSpace=wrap;html=1;" parent="1" vertex="1">
          <mxGeometry x="1190" y="1000" width="80" height="70" as="geometry" />
        </mxCell>
        <mxCell id="LLBiNao7luYFCybffmW4-7" value="댓글 업로드" style="ellipse;whiteSpace=wrap;html=1;" parent="1" vertex="1">
          <mxGeometry x="1290" y="940" width="80" height="70" as="geometry" />
        </mxCell>
        <mxCell id="LLBiNao7luYFCybffmW4-8" value="게시글 삭제" style="ellipse;whiteSpace=wrap;html=1;" parent="1" vertex="1">
          <mxGeometry x="1190" y="1000" width="80" height="70" as="geometry" />
        </mxCell>
        <mxCell id="LLBiNao7luYFCybffmW4-9" value="댓글 업로드" style="ellipse;whiteSpace=wrap;html=1;" parent="1" vertex="1">
          <mxGeometry x="1290" y="940" width="80" height="70" as="geometry" />
        </mxCell>
        <mxCell id="LLBiNao7luYFCybffmW4-10" value="게시글 삭제" style="ellipse;whiteSpace=wrap;html=1;" parent="1" vertex="1">
          <mxGeometry x="1190" y="1000" width="80" height="70" as="geometry" />
        </mxCell>
        <mxCell id="LLBiNao7luYFCybffmW4-11" value="댓글 업로드" style="ellipse;whiteSpace=wrap;html=1;" parent="1" vertex="1">
          <mxGeometry x="1290" y="940" width="80" height="70" as="geometry" />
        </mxCell>
        <mxCell id="LLBiNao7luYFCybffmW4-12" value="게시글 조회" style="ellipse;whiteSpace=wrap;html=1;" parent="1" vertex="1">
          <mxGeometry x="1160" y="830" width="80" height="70" as="geometry" />
        </mxCell>
        <mxCell id="LLBiNao7luYFCybffmW4-13" value="게시글 수정" style="ellipse;whiteSpace=wrap;html=1;" parent="1" vertex="1">
          <mxGeometry x="1090" y="970" width="80" height="70" as="geometry" />
        </mxCell>
        <mxCell id="LLBiNao7luYFCybffmW4-14" value="댓글 수정" style="ellipse;whiteSpace=wrap;html=1;" parent="1" vertex="1">
          <mxGeometry x="1350" y="880" width="80" height="70" as="geometry" />
        </mxCell>
        <mxCell id="LLBiNao7luYFCybffmW4-15" value="댓글 삭제" style="ellipse;whiteSpace=wrap;html=1;" parent="1" vertex="1">
          <mxGeometry x="1390" y="800" width="80" height="70" as="geometry" />
        </mxCell>
        <mxCell id="LLBiNao7luYFCybffmW4-16" value="게시글 검색" style="ellipse;whiteSpace=wrap;html=1;" parent="1" vertex="1">
          <mxGeometry x="1350" y="690" width="80" height="70" as="geometry" />
        </mxCell>
        <mxCell id="LLBiNao7luYFCybffmW4-17" value="스터디 모집" style="ellipse;whiteSpace=wrap;html=1;" parent="1" vertex="1">
          <mxGeometry x="1180" y="620" width="90" height="70" as="geometry" />
        </mxCell>
        <mxCell id="LLBiNao7luYFCybffmW4-18" value="사내게시판" style="ellipse;whiteSpace=wrap;html=1;" parent="1" vertex="1">
          <mxGeometry x="1050" y="700" width="90" height="70" as="geometry" />
        </mxCell>
        <mxCell id="LLBiNao7luYFCybffmW4-19" value="게시글 삭제" style="ellipse;whiteSpace=wrap;html=1;" parent="1" vertex="1">
          <mxGeometry x="1189" y="1000" width="80" height="70" as="geometry" />
        </mxCell>
        <mxCell id="LLBiNao7luYFCybffmW4-20" value="댓글 업로드" style="ellipse;whiteSpace=wrap;html=1;" parent="1" vertex="1">
          <mxGeometry x="1289" y="940" width="80" height="70" as="geometry" />
        </mxCell>
        <mxCell id="LLBiNao7luYFCybffmW4-21" value="게시글 조회" style="ellipse;whiteSpace=wrap;html=1;" parent="1" vertex="1">
          <mxGeometry x="1159" y="830" width="80" height="70" as="geometry" />
        </mxCell>
        <mxCell id="LLBiNao7luYFCybffmW4-22" value="게시글 수정" style="ellipse;whiteSpace=wrap;html=1;" parent="1" vertex="1">
          <mxGeometry x="1089" y="970" width="80" height="70" as="geometry" />
        </mxCell>
        <mxCell id="LLBiNao7luYFCybffmW4-23" value="댓글 수정" style="ellipse;whiteSpace=wrap;html=1;" parent="1" vertex="1">
          <mxGeometry x="1349" y="880" width="80" height="70" as="geometry" />
        </mxCell>
        <mxCell id="LLBiNao7luYFCybffmW4-24" value="댓글 삭제" style="ellipse;whiteSpace=wrap;html=1;" parent="1" vertex="1">
          <mxGeometry x="1389" y="800" width="80" height="70" as="geometry" />
        </mxCell>
        <mxCell id="LLBiNao7luYFCybffmW4-25" value="게시글 검색" style="ellipse;whiteSpace=wrap;html=1;" parent="1" vertex="1">
          <mxGeometry x="1349" y="690" width="80" height="70" as="geometry" />
        </mxCell>
        <mxCell id="LLBiNao7luYFCybffmW4-26" value="스터디 모집" style="ellipse;whiteSpace=wrap;html=1;" parent="1" vertex="1">
          <mxGeometry x="1179" y="620" width="90" height="70" as="geometry" />
        </mxCell>
        <mxCell id="LLBiNao7luYFCybffmW4-27" value="사내게시판" style="ellipse;whiteSpace=wrap;html=1;" parent="1" vertex="1">
          <mxGeometry x="1049" y="700" width="90" height="70" as="geometry" />
        </mxCell>
        <mxCell id="LLBiNao7luYFCybffmW4-28" value="게시글 삭제" style="ellipse;whiteSpace=wrap;html=1;" parent="1" vertex="1">
          <mxGeometry x="1189" y="1000" width="80" height="70" as="geometry" />
        </mxCell>
        <mxCell id="LLBiNao7luYFCybffmW4-29" value="댓글 업로드" style="ellipse;whiteSpace=wrap;html=1;" parent="1" vertex="1">
          <mxGeometry x="1289" y="940" width="80" height="70" as="geometry" />
        </mxCell>
        <mxCell id="LLBiNao7luYFCybffmW4-30" value="게시글 조회" style="ellipse;whiteSpace=wrap;html=1;" parent="1" vertex="1">
          <mxGeometry x="1159" y="830" width="80" height="70" as="geometry" />
        </mxCell>
        <mxCell id="LLBiNao7luYFCybffmW4-31" value="게시글 수정" style="ellipse;whiteSpace=wrap;html=1;" parent="1" vertex="1">
          <mxGeometry x="1089" y="970" width="80" height="70" as="geometry" />
        </mxCell>
        <mxCell id="LLBiNao7luYFCybffmW4-32" value="댓글 수정" style="ellipse;whiteSpace=wrap;html=1;" parent="1" vertex="1">
          <mxGeometry x="1349" y="880" width="80" height="70" as="geometry" />
        </mxCell>
        <mxCell id="LLBiNao7luYFCybffmW4-33" value="댓글 삭제" style="ellipse;whiteSpace=wrap;html=1;" parent="1" vertex="1">
          <mxGeometry x="1389" y="800" width="80" height="70" as="geometry" />
        </mxCell>
        <mxCell id="LLBiNao7luYFCybffmW4-34" value="게시글 검색" style="ellipse;whiteSpace=wrap;html=1;" parent="1" vertex="1">
          <mxGeometry x="1349" y="690" width="80" height="70" as="geometry" />
        </mxCell>
        <mxCell id="LLBiNao7luYFCybffmW4-35" value="스터디 모집" style="ellipse;whiteSpace=wrap;html=1;" parent="1" vertex="1">
          <mxGeometry x="1179" y="620" width="90" height="70" as="geometry" />
        </mxCell>
        <mxCell id="LLBiNao7luYFCybffmW4-36" value="사내게시판" style="ellipse;whiteSpace=wrap;html=1;" parent="1" vertex="1">
          <mxGeometry x="1049" y="700" width="90" height="70" as="geometry" />
        </mxCell>
        <mxCell id="fIi_ZgyzsDymGvnEUihj-1" value="" style="endArrow=none;html=1;exitX=0.5;exitY=0;exitDx=0;exitDy=0;" parent="1" source="PEsu_zmEFKTXnumoR2Yf-67" target="fIi_ZgyzsDymGvnEUihj-2" edge="1">
          <mxGeometry width="50" height="50" relative="1" as="geometry">
            <mxPoint x="690" y="370" as="sourcePoint" />
            <mxPoint x="670" y="210" as="targetPoint" />
          </mxGeometry>
        </mxCell>
        <mxCell id="fIi_ZgyzsDymGvnEUihj-2" value="캘린더 출력" style="ellipse;whiteSpace=wrap;html=1;" parent="1" vertex="1">
          <mxGeometry x="620" y="255" width="90" height="65" as="geometry" />
        </mxCell>
        <mxCell id="2r5BO7VfZG819-GV5Ig_-3" value="회원가입" style="ellipse;whiteSpace=wrap;html=1;" vertex="1" parent="1">
          <mxGeometry x="280" y="440" width="90" height="70" as="geometry" />
        </mxCell>
        <mxCell id="2r5BO7VfZG819-GV5Ig_-4" value="아이디찾기" style="ellipse;whiteSpace=wrap;html=1;" vertex="1" parent="1">
          <mxGeometry x="280" y="360" width="90" height="70" as="geometry" />
        </mxCell>
        <mxCell id="2r5BO7VfZG819-GV5Ig_-5" value="비밀번호찾기" style="ellipse;whiteSpace=wrap;html=1;" vertex="1" parent="1">
          <mxGeometry x="280" y="280" width="90" height="70" as="geometry" />
        </mxCell>
        <mxCell id="2r5BO7VfZG819-GV5Ig_-6" value="" style="endArrow=classic;html=1;exitX=1;exitY=0.3333333333333333;exitDx=0;exitDy=0;exitPerimeter=0;entryX=0;entryY=0.5;entryDx=0;entryDy=0;" edge="1" parent="1">
          <mxGeometry width="50" height="50" relative="1" as="geometry">
            <mxPoint x="120" y="630" as="sourcePoint" />
            <mxPoint x="630" y="435" as="targetPoint" />
            <Array as="points" />
          </mxGeometry>
        </mxCell>
        <mxCell id="2r5BO7VfZG819-GV5Ig_-7" value="" style="endArrow=classic;html=1;exitX=1;exitY=0.5;exitDx=0;exitDy=0;entryX=0;entryY=0.5;entryDx=0;entryDy=0;" edge="1" source="2r5BO7VfZG819-GV5Ig_-3" parent="1">
          <mxGeometry width="50" height="50" relative="1" as="geometry">
            <mxPoint x="270" y="599.9999999999998" as="sourcePoint" />
            <mxPoint x="630" y="435" as="targetPoint" />
          </mxGeometry>
        </mxCell>
        <mxCell id="2r5BO7VfZG819-GV5Ig_-8" value="회원가입" style="ellipse;whiteSpace=wrap;html=1;" vertex="1" parent="1">
          <mxGeometry x="280" y="440" width="90" height="70" as="geometry" />
        </mxCell>
        <mxCell id="2r5BO7VfZG819-GV5Ig_-9" value="아이디찾기" style="ellipse;whiteSpace=wrap;html=1;" vertex="1" parent="1">
          <mxGeometry x="280" y="360" width="90" height="70" as="geometry" />
        </mxCell>
        <mxCell id="2r5BO7VfZG819-GV5Ig_-10" value="비밀번호찾기" style="ellipse;whiteSpace=wrap;html=1;" vertex="1" parent="1">
          <mxGeometry x="280" y="280" width="90" height="70" as="geometry" />
        </mxCell>
        <mxCell id="2r5BO7VfZG819-GV5Ig_-11" value="" style="endArrow=classic;html=1;exitX=1;exitY=0.3333333333333333;exitDx=0;exitDy=0;exitPerimeter=0;entryX=0;entryY=0.5;entryDx=0;entryDy=0;" edge="1" parent="1">
          <mxGeometry width="50" height="50" relative="1" as="geometry">
            <mxPoint x="120" y="630" as="sourcePoint" />
            <mxPoint x="630" y="435" as="targetPoint" />
            <Array as="points" />
          </mxGeometry>
        </mxCell>
        <mxCell id="2r5BO7VfZG819-GV5Ig_-12" value="" style="endArrow=classic;html=1;exitX=1;exitY=0.5;exitDx=0;exitDy=0;entryX=0;entryY=0.5;entryDx=0;entryDy=0;" edge="1" source="2r5BO7VfZG819-GV5Ig_-8" parent="1">
          <mxGeometry width="50" height="50" relative="1" as="geometry">
            <mxPoint x="270" y="599.9999999999998" as="sourcePoint" />
            <mxPoint x="630" y="435" as="targetPoint" />
          </mxGeometry>
        </mxCell>
        <mxCell id="2r5BO7VfZG819-GV5Ig_-13" value="회원가입" style="ellipse;whiteSpace=wrap;html=1;" vertex="1" parent="1">
          <mxGeometry x="280" y="440" width="90" height="70" as="geometry" />
        </mxCell>
        <mxCell id="2r5BO7VfZG819-GV5Ig_-14" value="아이디찾기" style="ellipse;whiteSpace=wrap;html=1;" vertex="1" parent="1">
          <mxGeometry x="280" y="360" width="90" height="70" as="geometry" />
        </mxCell>
        <mxCell id="2r5BO7VfZG819-GV5Ig_-15" value="비밀번호찾기" style="ellipse;whiteSpace=wrap;html=1;" vertex="1" parent="1">
          <mxGeometry x="280" y="280" width="90" height="70" as="geometry" />
        </mxCell>
        <mxCell id="2r5BO7VfZG819-GV5Ig_-16" value="" style="endArrow=classic;html=1;exitX=1;exitY=0.3333333333333333;exitDx=0;exitDy=0;exitPerimeter=0;entryX=0;entryY=0.5;entryDx=0;entryDy=0;" edge="1" parent="1">
          <mxGeometry width="50" height="50" relative="1" as="geometry">
            <mxPoint x="120" y="630" as="sourcePoint" />
            <mxPoint x="630" y="435" as="targetPoint" />
            <Array as="points" />
          </mxGeometry>
        </mxCell>
        <mxCell id="2r5BO7VfZG819-GV5Ig_-17" value="" style="endArrow=classic;html=1;exitX=1;exitY=0.5;exitDx=0;exitDy=0;entryX=0;entryY=0.5;entryDx=0;entryDy=0;" edge="1" source="2r5BO7VfZG819-GV5Ig_-13" parent="1">
          <mxGeometry width="50" height="50" relative="1" as="geometry">
            <mxPoint x="270" y="599.9999999999998" as="sourcePoint" />
            <mxPoint x="630" y="435" as="targetPoint" />
          </mxGeometry>
        </mxCell>
        <mxCell id="2r5BO7VfZG819-GV5Ig_-18" value="" style="endArrow=classic;html=1;entryX=0;entryY=0.5;entryDx=0;entryDy=0;exitX=1;exitY=0.3333333333333333;exitDx=0;exitDy=0;exitPerimeter=0;" edge="1" parent="1">
          <mxGeometry width="50" height="50" relative="1" as="geometry">
            <mxPoint x="120" y="630" as="sourcePoint" />
            <mxPoint x="280" y="315" as="targetPoint" />
          </mxGeometry>
        </mxCell>
        <mxCell id="2r5BO7VfZG819-GV5Ig_-19" value="" style="endArrow=classic;html=1;entryX=0;entryY=0.5;entryDx=0;entryDy=0;exitX=1;exitY=0.5;exitDx=0;exitDy=0;" edge="1" parent="1">
          <mxGeometry width="50" height="50" relative="1" as="geometry">
            <mxPoint x="370" y="315" as="sourcePoint" />
            <mxPoint x="630" y="435" as="targetPoint" />
          </mxGeometry>
        </mxCell>
      </root>
    </mxGraphModel>
  </diagram>
</mxfile>
